<?xml version="1.0" encoding="utf-8"?>
<svg width="50px" height="50px" viewBox="0 0 24 24" fill="none" xmlns="http://www.w3.org/2000/svg">
<path d="M1 12C1 12 5 4 12 4C19 4 23 12 23 12" stroke="#9544B0" stroke-linecap="round" stroke-linejoin="round"/>
<path d="M1 12C1 12 5 20 12 20C19 20 23 12 23 12" stroke="#9544B0" stroke-linecap="round" stroke-linejoin="round"/>
<circle cx="12" cy="12" r="3" stroke="#9544B0" stroke-linecap="round" stroke-linejoin="round"/>
<path d="M3.293,20.707a1,1,0,0,1,0-1.414l16-16a1,1,0,1,1,1.414,1.414l-16,16A1,1,0,0,1,3.293,20.707Z" fill="#000000" stroke-linecap="round" stroke-linejoin="round"/>
</svg>